<?xml version="1.0" encoding="UTF-8"?>
<svg width="151px" height="160px" viewBox="0 0 151 160" version="1.1" xmlns="http://www.w3.org/2000/svg" xmlns:xlink="http://www.w3.org/1999/xlink">
    <!-- Generator: Sketch 61.2 (89653) - https://sketch.com -->
    <title>Group</title>
    <desc>Created with Sketch.</desc>
    <defs>
        <linearGradient x1="50%" y1="0%" x2="50%" y2="100%" id="linearGradient-1">
            <stop stop-color="#26FE86" offset="0%"></stop>
            <stop stop-color="#145E3B" offset="100%"></stop>
        </linearGradient>
    </defs>
    <g id="Page-1" stroke="none" stroke-width="1" fill="none" fill-rule="evenodd">
        <g id="Artboard" transform="translate(-664.000000, -259.000000)">
            <g id="Group" transform="translate(664.874051, 259.000000)">
                <path d="M43.3603639,66.1928934 L104.818697,108.020305 L118.360364,118.172589 C139.193697,101.268396 149.610364,81.0950047 149.610364,57.6524151 C149.610364,34.2098255 139.020086,14.9923538 117.839531,0 L43.3603639,52.3857868 L43.3603639,66.1928934 Z" id="Path-4" fill="#9BFF63"></path>
                <ellipse id="Oval" stroke="#000000" fill="#000000" cx="92.8395305" cy="59.6954315" rx="15.625" ry="12.9949239"></ellipse>
                <ellipse id="Oval" stroke="#000000" fill="#000000" cx="103.777031" cy="89.7461929" rx="8.85416667" ry="6.9035533"></ellipse>
                <ellipse id="Oval" stroke="#000000" fill="#000000" cx="71.4853639" cy="81.6243655" rx="10.9375" ry="9.34010152"></ellipse>
                <ellipse id="Oval" stroke="#000000" fill="#000000" cx="54.8186972" cy="46.7005076" rx="10.9375" ry="9.34010152"></ellipse>
                <ellipse id="Oval" fill="#000000" cx="105.860364" cy="32.4873096" rx="8.85416667" ry="6.9035533"></ellipse>
                <path d="M104.818697,108.020305 C122.527031,93.1302876 131.381197,75.8037225 131.381197,56.0406091 C131.381197,36.2774958 122.527031,20.8460237 104.818697,9.74619289 L117.839531,0 C139.020086,15.1607445 149.610364,34.7884941 149.610364,58.8832487 C149.610364,82.9780034 139.193697,102.741117 118.360364,118.172589 L104.818697,108.020305 Z" id="Path-5" fill="#000000"></path>
                <path d="M5.33953053,160 C31.7060744,160 94.5410782,145.671759 90.7561972,103.553299 C89.1731809,85.9373671 44.9228639,68.697983 44.9228639,60.9137056 C44.9228639,52.0254206 57.9436972,41.6024088 83.9853639,29.6446701 C100.837025,14.7546531 103.093969,7.30964467 90.7561972,7.30964467 C53.3619173,7.30964467 5.33953053,38.1725888 5.33953053,60.9137056 C5.33953053,83.6548223 51.3874918,82.4683993 50.6520305,103.553299 C49.2318327,144.268875 -19.2966815,160 5.33953053,160 Z" id="Oval" fill="url(#linearGradient-1)"></path>
            </g>
        </g>
    </g>
</svg>